<?xml version="1.0" standalone="no"?><!DOCTYPE svg PUBLIC "-//W3C//DTD SVG 1.1//EN" "http://www.w3.org/Graphics/SVG/1.1/DTD/svg11.dtd"><svg t="1599464786148" class="icon" viewBox="0 0 1024 1024" version="1.1" xmlns="http://www.w3.org/2000/svg" p-id="2826" xmlns:xlink="http://www.w3.org/1999/xlink" width="200" height="200"><defs><style type="text/css"></style></defs><path d="M983.32700093-6.45970102H40.67299907c-56.55924012 0-94.26540018 47.1327001-94.26540019 94.26540019v659.8578013c0 56.55924012 47.1327001 94.26540018 94.26540019 94.26540018h377.06160075v94.26540018h-141.39810029c-28.27962005 0-47.1327001 18.85308004-47.1327001 47.1327001s18.85308004 47.1327001 47.1327001 47.13270009h471.32700094c28.27962005 0 47.1327001-18.85308004 47.1327001-47.13270009s-18.85308004-47.1327001-47.1327001-47.1327001h-141.39810029v-94.26540018h377.06160075c56.55924012 0 94.26540018-47.1327001 94.26540019-94.26540018V87.80569917c0-47.1327001-47.1327001-94.26540018-94.26540019-94.26540019z m0 754.12320149H40.67299907V87.80569917h942.65400186v659.8578013z" fill="" p-id="2827"></path></svg>