<?xml version="1.0" standalone="no"?><!DOCTYPE svg PUBLIC "-//W3C//DTD SVG 1.1//EN" "http://www.w3.org/Graphics/SVG/1.1/DTD/svg11.dtd"><svg t="1601000349271" class="icon" viewBox="0 0 1024 1024" version="1.1" xmlns="http://www.w3.org/2000/svg" p-id="3673" xmlns:xlink="http://www.w3.org/1999/xlink" width="200" height="200"><defs><style type="text/css"></style></defs><path d="M924.864 224H461.216c-8.096 0-15.936-2.912-22.048-8.256l-110.944-95.936A98.08 98.08 0 0 0 264.256 96h-165.12A99.264 99.264 0 0 0 0 195.136v633.76A99.264 99.264 0 0 0 99.136 928h825.76A99.264 99.264 0 0 0 1024 828.864V323.136A99.264 99.264 0 0 0 924.864 224zM99.136 160h165.12c8.096 0 15.968 2.944 22.08 8.256l110.912 95.904c17.76 15.36 40.48 23.84 63.968 23.84h463.648C944.256 288 960 303.744 960 323.136V400H64V195.136C64 175.744 79.744 160 99.136 160z m825.728 704H99.136A35.168 35.168 0 0 1 64 828.864V464h896v364.864c0 19.392-15.744 35.136-35.136 35.136z" p-id="3674"></path></svg>