<?xml version="1.0" standalone="no"?><!DOCTYPE svg PUBLIC "-//W3C//DTD SVG 1.1//EN" "http://www.w3.org/Graphics/SVG/1.1/DTD/svg11.dtd"><svg t="1601022125764" class="icon" viewBox="0 0 1024 1024" version="1.1" xmlns="http://www.w3.org/2000/svg" p-id="6328" xmlns:xlink="http://www.w3.org/1999/xlink" width="200" height="200"><defs><style type="text/css"></style></defs><path d="M766.656 1024h-509.44a134.4 134.4 0 0 1-129.28-138.176V138.24A134.4 134.4 0 0 1 257.216 0h401.92l236.8 283.2v602.624A134.4 134.4 0 0 1 766.656 1024zM257.216 73.728a62.592 62.592 0 0 0-60.352 64.512v747.584a62.592 62.592 0 0 0 60.352 64.512h509.44a62.592 62.592 0 0 0 60.352-64.512V334.08h-217.6V73.728z m421.12 59.52v127.168h106.368z" fill="#198CFF" p-id="6329"></path><path d="M668.8 817.536h-313.6a36.416 36.416 0 0 1-33.856-38.464 36.416 36.416 0 0 1 33.856-38.4h313.6a36.416 36.416 0 0 1 33.856 38.4 36.416 36.416 0 0 1-33.856 38.464z m0-143.68h-313.6a36.416 36.416 0 0 1-33.856-38.464 36.416 36.416 0 0 1 33.856-38.4h313.6a36.416 36.416 0 0 1 33.856 38.4 36.416 36.416 0 0 1-33.856 38.464z m0-153.984h-313.6a36.416 36.416 0 0 1-33.856-38.528 36.416 36.416 0 0 1 33.856-38.4h313.6a36.416 36.416 0 0 1 33.856 38.4 36.416 36.416 0 0 1-33.856 38.4z" fill="#198CFF" p-id="6330"></path></svg>