<?xml version="1.0" standalone="no"?><!DOCTYPE svg PUBLIC "-//W3C//DTD SVG 1.1//EN" "http://www.w3.org/Graphics/SVG/1.1/DTD/svg11.dtd"><svg t="1603703483335" class="icon" viewBox="0 0 1024 1024" version="1.1" xmlns="http://www.w3.org/2000/svg" p-id="7465" xmlns:xlink="http://www.w3.org/1999/xlink" width="200" height="200"><defs><style type="text/css"></style></defs><path d="M571.152168 947.111074c-38.784-1.038821-76.686821-7.3984-113.646484-19.166316-3.845389-1.223411-6.352842-0.846147-9.72261 1.514442-45.732379 32.030989-96.834021 46.550232-152.429137 46.218779-3.8656-0.024253-5.831411-1.350063-7.223242-5.117305-17.544084-47.479916-19.023495-95.397726-4.065011-143.737263 1.432253-4.630905 0.865011-7.438821-2.599073-11.082106-21.268211-22.360926-39.135663-47.310147-54.573811-73.993431-1.836463-3.175747-3.852126-4.564884-7.570863-5.148295-58.400337-9.182316-107.639916-36.463832-150.185769-76.716463-5.8624-5.547116-11.092884-11.761179-16.945852-17.319074-3.453305-3.278147-3.752421-6.381137-2.070905-10.638821 23.015747-58.245389 60.026611-104.651453 115.124547-135.52101 6.483537-3.632505 9.432926-7.329684 10.366653-15.024506 3.900632-32.095663 11.257263-63.498779 22.134568-93.996463 1.571032-4.4032 1.096758-7.522358-1.700379-11.525389-26.068884-37.280337-40.605642-78.984084-46.542147-123.873011-2.655663-20.075789-3.260632-40.208168-2.126148-60.438905 0.260042-4.641684 2.197558-6.647916 6.165558-8.252632 62.926147-25.439663 126.525979-29.122021 190.936926-5.9904 3.323958 1.193768 5.658947 1.044211 8.570611-0.926989 32.114526-21.729011 66.752674-38.173642 103.952168-49.168169 2.359242-0.699284 4.342568-1.059032 5.215664-4.226694 12.8-46.358905 41.236211-81.480758 79.6416-109.085642 13.056-9.385768 8.078821-9.488168 22.363621-0.541643 36.897684 23.106021 63.746695 54.668126 78.389894 96.028295 1.162779 3.284884 2.531705 4.872084 6.339369 5.446063 31.562105 4.7616 62.189137 13.089684 91.669558 25.377685 3.773979 1.573726 6.340716 1.187032 9.740126-0.9728 28.627537-18.188126 60.297432-24.360421 93.768758-23.30139 3.111074 0.097011 4.253642 1.808168 5.436631 4.046147 16.090274 30.472084 22.726063 62.577179 16.171116 96.768-0.757221 3.945095 0.165726 6.110316 2.717642 8.699958 52.781811 53.557895 87.802611 116.694232 102.273348 190.772548 4.481347 22.942989 6.895832 46.119074 6.412126 69.561937-0.111832 5.424505-1.474021 9.436968-7.402442 10.02981-5.610442 0.560505-7.795874-3.117811-9.044884-7.945432-13.883284-53.689937-37.692632-102.441768-73.288758-145.107536-54.639832-65.487495-123.577937-107.471495-208.03099-120.887242-75.652042-12.018526-148.971789-2.149053-217.472 33.538694-50.820042 26.475789-86.9888 67.8144-112.731621 118.397306-27.941726 54.898526-42.408421 113.236884-39.760842 174.978694 2.752674 64.192674 25.469305 121.287411 67.652716 169.633684 59.242442 67.901979 134.942989 102.044295 224.846147 98.316127 80.582063-3.341474 139.886484-44.231411 178.10459-115.062569 16.3328-30.274021 24.229726-63.063579 24.310568-97.494231 0.173811-74.520253-54.090105-141.762021-126.803537-158.132548-36.740042-8.271495-71.636884-5.252042-104.333473 14.578527-44.337853 26.892126-70.123789 81.585853-61.411706 130.345768 8.023579 44.914526 46.4896 81.077895 91.875706 86.959158 19.292968 2.500716 37.437979-0.136084 54.715284-9.100126 7.379537-3.829221 13.290442-2.648926 16.440589 2.877979 3.158232 5.539032 1.278653 11.106358-5.54981 15.902989-35.146105 24.686484-73.405979 26.889432-112.925642 14.012632-60.818863-19.818442-101.211621-78.019368-102.509137-142.043621-1.952337-96.256 68.3264-182.554947 166.203284-197.664337 71.267705-11.001263 136.445305 7.054821 192.951242 51.958568 65.914611 52.3776 97.739453 121.977263 99.169011 205.814569 0.156295 9.195789 0.273516 18.411789-1.118316 27.5456-0.516042 3.391326 0.455411 5.596968 3.255242 7.975073 29.163789 24.752505 44.464505 57.214653 51.732211 94.069221 0.626526 3.178442-0.074105 5.398905-2.7392 7.50619-27.580632 21.803116-58.432674 34.619284-94.022064 34.250105-3.881768-0.039074-5.935158 1.095411-7.983157 4.288674-22.277389 34.736505-49.899789 64.522779-83.368421 88.740379-3.4304 2.4832-4.7616 5.022989-4.975832 9.260463-2.370021 46.689011-22.4768 85.552505-53.173895 119.727158-2.258189 2.512842-4.356042 3.301053-7.552 2.639495-44.2112-9.166147-82.318821-28.632926-110.221473-65.274611-1.975242-2.595032-4.005726-3.513937-7.252885-3.398063-7.848421 0.282947-15.714358 0.094316-23.573558 0.094316z" fill="" p-id="7466"></path></svg>