<?xml version="1.0" standalone="no"?><!DOCTYPE svg PUBLIC "-//W3C//DTD SVG 1.1//EN" "http://www.w3.org/Graphics/SVG/1.1/DTD/svg11.dtd"><svg t="1603703375876" class="icon" viewBox="0 0 1153 1024" version="1.1" xmlns="http://www.w3.org/2000/svg" p-id="6399" xmlns:xlink="http://www.w3.org/1999/xlink" width="225.1953125" height="200"><defs><style type="text/css"></style></defs><path d="M575.925025 0.25584a578.902186 578.902186 0 0 0-379.155028 1013.638476 39.591255 39.591255 0 0 0 55.965022-5.244722 40.038976 40.038976 0 0 0-3.517802-54.685821 508.482199 508.482199 0 0 1-24.176889-22.769769 498.888195 498.888195 0 0 1-57.564023-69.524547l34.794254-20.147408a39.847096 39.847096 0 0 0-39.719176-69.140787l-34.858213 20.275328c-3.134041-6.396002-6.396002-13.239725-8.954404-19.955528a502.597876 502.597876 0 0 1 0-387.981512c2.814241-6.396002 5.820362-13.303685 8.954404-19.827607l34.858213 20.083447a39.591255 39.591255 0 0 0 54.302062-14.582885 40.038976 40.038976 0 0 0-14.518926-54.557902l-34.602374-20.275328a498.184635 498.184635 0 0 1 215.353405-176.273828 486.99163 486.99163 0 0 1 153.504059-37.416615v40.294816a39.783136 39.783136 0 1 0 79.502312 0v-40.294816a488.846471 488.846471 0 0 1 153.50406 37.480575 494.730793 494.730793 0 0 1 157.853341 106.877201 499.783635 499.783635 0 0 1 57.564023 69.524548l-34.858214 20.147407a39.975016 39.975016 0 0 0 19.891568 74.51343 39.335415 39.335415 0 0 0 19.827608-5.372643l34.922173-20.019487c3.070081 6.396002 6.076202 12.792005 8.890444 19.699687a502.853716 502.853716 0 0 1 0 387.981512q-4.285322 10.105684-9.018364 19.955528l-34.858213-20.275328a39.655215 39.655215 0 0 0-54.302062 14.646845 40.038976 40.038976 0 0 0 14.582886 54.557902l34.730294 20.147408a503.045597 503.045597 0 0 1-57.564023 69.524547 544.299813 544.299813 0 0 1-24.176889 22.705809 39.911056 39.911056 0 0 0-3.709682 56.156902 39.847096 39.847096 0 0 0 56.156902 3.837601A578.902186 578.902186 0 0 0 575.925025 0.25584zM383.46931 293.768395a39.783136 39.783136 0 0 0-69.652468 38.376015l275.987508 505.923797a39.783136 39.783136 0 1 0 69.716428-38.376015z" p-id="6400"></path></svg>