<?xml version="1.0" standalone="no"?><!DOCTYPE svg PUBLIC "-//W3C//DTD SVG 1.1//EN" "http://www.w3.org/Graphics/SVG/1.1/DTD/svg11.dtd"><svg t="1603703454646" class="icon" viewBox="0 0 1024 1024" version="1.1" xmlns="http://www.w3.org/2000/svg" p-id="6968" xmlns:xlink="http://www.w3.org/1999/xlink" width="200" height="200"><defs><style type="text/css"></style></defs><path d="M783.36 691.2H240.64l-5.12-5.12c-35.84-40.96-66.56-87.04-81.92-138.24 0 0 66.56 15.36 117.76 25.6 0 0 25.6 5.12 61.44 10.24-35.84-40.96-56.32-92.16-56.32-148.48 0-117.76 92.16-220.16 56.32-302.08 30.72 5.12 66.56 66.56 66.56 168.96 30.72-56.32 46.08-117.76 46.08-184.32 0-51.2 35.84-117.76 71.68-117.76-30.72 51.2 10.24 97.28 40.96 204.8 15.36 40.96 10.24 112.64 20.48 153.6 5.12-92.16 20.48-225.28 76.8-271.36-20.48 61.44 10.24 133.12 30.72 168.96 35.84 51.2 51.2 117.76 51.2 179.2 0 51.2-20.48 107.52-56.32 143.36 40.96-5.12 66.56-15.36 66.56-15.36l122.88-25.6c-15.36 61.44-46.08 112.64-87.04 153.6z m5.12 148.48H235.52v-97.28h547.84l5.12 97.28zM512 1024c-92.16 0-163.84-61.44-163.84-138.24h332.8c-5.12 76.8-76.8 138.24-168.96 138.24z" p-id="6969"></path></svg>